# xmcd CD database file
#
# Track frame offsets:
#	150
#	16201
#	27952
#	42296
#	52830
#	67689
#	82651
#	95584
#	109912
#	125860
#	136696
#
# Disc length: 2106 seconds
#
# Revision: 2
# Processed by: cddbd v1.5.2PL0 Copyright (c) Steve Scherf et al.
# Submitted via: CDex 1.51
#
DISCID=8008380b
DTITLE=Johnny Cash - The Mystery Of Life
DYEAR=2003
DGENRE=Country
TTITLE0=The Greatest Cowboy Of Them All
TTITLE1=I'm An Easy Rider
TTITLE2=The Mystery Of Life
TTITLE3=Hey Porter
TTITLE4=Beans For Breakfast
TTITLE5=Goin' By The Book
TTITLE6=Wanted Man
TTITLE7=I'll Go Somewhere And Sing My Songs Again (With Tom T. Hall)
TTITLE8=The Hobo Song
TTITLE9=Angel And The Badman
TTITLE10=The Wanderer (With U2)
EXTD=YEAR: 2003
EXTT0=
EXTT1=
EXTT2=
EXTT3=
EXTT4=
EXTT5=
EXTT6=
EXTT7=
EXTT8=
EXTT9=
EXTT10=
PLAYORDER=
